<svg xmlns="http://www.w3.org/2000/svg" width="1020" height="140" viewBox="0 0 51 7" role="img" aria-labelledby="title description">
  <title id="title">Desert sunset contribution mosaic</title>
  <desc id="description">An exact 51 by 7 contribution-cell desert with a huge setting sun, cacti, mesas, dunes, and foreground shadows.</desc>
  <defs>
    <pattern id="cells" width="1" height="1" patternUnits="userSpaceOnUse"><rect x=".08" y=".08" width=".84" height=".84" rx=".16" fill="#fff" /></pattern>
    <mask id="grid"><rect width="51" height="7" fill="url(#cells)" /></mask>
  </defs>
  <rect width="51" height="7" fill="#0d1117" />
  <g mask="url(#grid)">
    <rect width="51" height="7" fill="#161b22" />
    <path fill="#0e4429" d="M12 1h1v1H12z M7 2h1v1H7z M12 2h1v1H12z M22 2h1v1H22z M31 2h1v1H31z M46 2h1v1H46z M7 3h1v1H7z M11 3h3v1H11z M20 3h8v1H20z M31 3h1v1H31z M34 3h1v1H34z M43 3h1v1H43z M46 3h1v1H46z M0 4h5v1H0z M16 4h2v1H16z M49 4h2v1H49z M0 5h3v1H0z M6 5h7v1H6z M16 5h7v1H16z M26 5h7v1H26z M36 5h7v1H36z M46 5h5v1H46z M0 6h3v1H0z M6 6h5v1H6z M16 6h5v1H16z M26 6h5v1H26z M36 6h5v1H36z M46 6h5v1H46z" />
    <path fill="#006d32" d="M4 0h1v1H4z M17 0h1v1H17z M11 2h1v1H11z M13 2h1v1H13z M35 2h1v1H35z M42 2h1v1H42z M6 3h1v1H6z M8 3h1v1H8z M10 3h1v1H10z M14 3h1v1H14z M19 3h1v1H19z M28 3h1v1H28z M30 3h1v1H30z M32 3h1v1H32z M35 3h1v1H35z M42 3h1v1H42z M45 3h1v1H45z M47 3h1v1H47z M5 4h11v1H5z M18 4h16v1H18z M35 4h1v1H35z M42 4h1v1H42z M44 4h5v1H44z M3 5h3v1H3z M13 5h3v1H13z M23 5h3v1H23z M33 5h3v1H33z M43 5h3v1H43z M3 6h3v1H3z M11 6h5v1H11z M21 6h5v1H21z M31 6h5v1H31z M41 6h5v1H41z" />
    <path fill="#26a641" d="M37 0h1v1H37z M40 0h1v1H40z M36 1h1v1H36z M41 1h1v1H41z M36 2h1v1H36z M41 2h1v1H41z M36 3h1v1H36z M41 3h1v1H41z M34 4h1v1H34z M36 4h1v1H36z M41 4h1v1H41z M43 4h1v1H43z" />
    <path fill="#39d353" d="M38 0h2v1H38z M37 1h4v1H37z M37 2h4v1H37z M37 3h4v1H37z M37 4h4v1H37z" />
  </g>
</svg>
