<svg xmlns="http://www.w3.org/2000/svg" width="1020" height="140" viewBox="0 0 51 7" role="img" aria-labelledby="title description">
  <title id="title">Sunrise sailboat contribution mosaic</title>
  <desc id="description">An exact 51 by 7 contribution-cell scene of a sailboat crossing patterned ocean waves beneath the sun.</desc>
  <defs>
    <pattern id="cells" width="1" height="1" patternUnits="userSpaceOnUse"><rect x=".08" y=".08" width=".84" height=".84" rx=".16" fill="#fff" /></pattern>
    <mask id="grid"><rect width="51" height="7" fill="url(#cells)" /></mask>
  </defs>
  <rect width="51" height="7" fill="#0d1117" />
  <g mask="url(#grid)">
    <rect width="51" height="7" fill="#161b22" />
    <path fill="#0e4429" d="M35 0h2v1H35z M38 0h1v1H38z M26 1h1v1H26z M34 1h2v1H34z M39 1h2v1H39z M26 2h1v1H26z M26 3h1v1H26z M0 4h2v1H0z M5 4h2v1H5z M10 4h2v1H10z M16 4h2v1H16z M20 4h2v1H20z M31 4h2v1H31z M36 4h2v1H36z M42 4h2v1H42z M48 4h2v1H48z M3 5h2v1H3z M9 5h2v1H9z M15 5h2v1H15z M21 5h2v1H21z M27 5h2v1H27z M33 5h2v1H33z M39 5h2v1H39z M45 5h2v1H45z M0 6h1v1H0z M5 6h2v1H5z M11 6h2v1H11z M17 6h2v1H17z M23 6h2v1H23z M29 6h2v1H29z M35 6h2v1H35z M41 6h2v1H41z M47 6h2v1H47z" />
    <path fill="#006d32" d="M18 0h1v1H18z M43 0h1v1H43z M36 1h3v1H36z M23 2h1v1H23z M28 2h1v1H28z M21 3h1v1H21z M30 3h1v1H30z M2 4h2v1H2z M7 4h2v1H7z M12 4h2v1H12z M18 4h2v1H18z M22 4h9v1H22z M33 4h2v1H33z M38 4h2v1H38z M44 4h2v1H44z M50 4h1v1H50z M0 5h2v1H0z M5 5h2v1H5z M11 5h2v1H11z M17 5h2v1H17z M23 5h2v1H23z M29 5h2v1H29z M35 5h2v1H35z M41 5h2v1H41z M47 5h3v1H47z M1 6h2v1H1z M7 6h2v1H7z M13 6h2v1H13z M19 6h2v1H19z M25 6h2v1H25z M31 6h2v1H31z M37 6h2v1H37z M43 6h2v1H43z M49 6h2v1H49z" />
    <path fill="#26a641" d="M6 0h1v1H6z M8 0h1v1H8z M5 1h1v1H5z M9 1h1v1H9z M6 2h1v1H6z M8 2h1v1H8z M24 2h2v1H24z M27 2h1v1H27z M22 3h4v1H22z M27 3h3v1H27z M4 4h1v1H4z M9 4h1v1H9z M14 4h2v1H14z M35 4h1v1H35z M40 4h2v1H40z M46 4h2v1H46z M2 5h1v1H2z M7 5h2v1H7z M13 5h2v1H13z M19 5h2v1H19z M25 5h2v1H25z M31 5h2v1H31z M37 5h2v1H37z M43 5h2v1H43z M50 5h1v1H50z M3 6h2v1H3z M9 6h2v1H9z M15 6h2v1H15z M21 6h2v1H21z M27 6h2v1H27z M33 6h2v1H33z M39 6h2v1H39z M45 6h2v1H45z" />
    <path fill="#39d353" d="M7 0h1v1H7z M6 1h3v1H6z M7 2h1v1H7z" />
  </g>
</svg>
